<mxfile host="app.diagrams.net" modified="2022-03-07T05:55:54.504Z" agent="5.0 (Windows NT 10.0; Win64; x64) AppleWebKit/537.36 (KHTML, like Gecko) Chrome/97.0.4692.99 Safari/537.36" etag="UScMHCoOQnYBtjG2KM7v" version="16.6.5" type="github">
  <diagram id="BDvVSngGOplgBvMkCZ0S" name="Page-1">
    <mxGraphModel dx="494" dy="265" grid="1" gridSize="10" guides="1" tooltips="1" connect="1" arrows="1" fold="1" page="1" pageScale="1" pageWidth="827" pageHeight="1169" math="0" shadow="0">
      <root>
        <mxCell id="0" />
        <mxCell id="1" parent="0" />
        <mxCell id="b1F-uJUC9WspK6oYwCPj-3" value="consumer server" style="swimlane;fillColor=#F2FFD4;dashed=1;dashPattern=1 2;" parent="1" vertex="1">
          <mxGeometry x="200" y="45" width="450" height="545" as="geometry">
            <mxRectangle x="370" y="60" width="80" height="23" as="alternateBounds" />
          </mxGeometry>
        </mxCell>
        <mxCell id="b1F-uJUC9WspK6oYwCPj-13" value="监听订单消息" style="whiteSpace=wrap;html=1;align=center;fillColor=#99CCFF;" parent="b1F-uJUC9WspK6oYwCPj-3" vertex="1">
          <mxGeometry x="120" y="60" width="100" height="40" as="geometry" />
        </mxCell>
        <mxCell id="b1F-uJUC9WspK6oYwCPj-18" value="是否已推送" style="rhombus;whiteSpace=wrap;html=1;fillColor=#ffffc0;strokeColor=#000000;dashed=1;dashPattern=1 2;" parent="b1F-uJUC9WspK6oYwCPj-3" vertex="1">
          <mxGeometry x="130" y="135" width="80" height="40" as="geometry" />
        </mxCell>
        <mxCell id="b1F-uJUC9WspK6oYwCPj-19" value="是" style="edgeStyle=orthogonalEdgeStyle;html=1;align=left;verticalAlign=bottom;endArrow=open;endSize=8;strokeColor=#000000;rounded=0;exitX=1;exitY=0.5;exitDx=0;exitDy=0;entryX=0;entryY=0.5;entryDx=0;entryDy=0;" parent="b1F-uJUC9WspK6oYwCPj-3" source="b1F-uJUC9WspK6oYwCPj-18" target="b1F-uJUC9WspK6oYwCPj-34" edge="1">
          <mxGeometry x="-0.3331" y="2" relative="1" as="geometry">
            <mxPoint x="270" y="152.56" as="targetPoint" />
            <Array as="points" />
            <mxPoint as="offset" />
          </mxGeometry>
        </mxCell>
        <mxCell id="b1F-uJUC9WspK6oYwCPj-20" value="否" style="edgeStyle=orthogonalEdgeStyle;html=1;align=left;verticalAlign=top;endArrow=open;endSize=8;strokeColor=#000000;rounded=0;entryX=0.5;entryY=0;entryDx=0;entryDy=0;" parent="b1F-uJUC9WspK6oYwCPj-3" source="b1F-uJUC9WspK6oYwCPj-18" target="b1F-uJUC9WspK6oYwCPj-38" edge="1">
          <mxGeometry x="-0.886" relative="1" as="geometry">
            <mxPoint x="170" y="220" as="targetPoint" />
            <Array as="points" />
            <mxPoint as="offset" />
          </mxGeometry>
        </mxCell>
        <mxCell id="b1F-uJUC9WspK6oYwCPj-28" value="" style="endArrow=classic;html=1;rounded=0;entryX=0.5;entryY=0;entryDx=0;entryDy=0;exitX=0.399;exitY=1.064;exitDx=0;exitDy=0;exitPerimeter=0;" parent="b1F-uJUC9WspK6oYwCPj-3" target="b1F-uJUC9WspK6oYwCPj-18" edge="1">
          <mxGeometry width="50" height="50" relative="1" as="geometry">
            <mxPoint x="169.89999999999998" y="100" as="sourcePoint" />
            <mxPoint x="140" y="87.44" as="targetPoint" />
          </mxGeometry>
        </mxCell>
        <mxCell id="b1F-uJUC9WspK6oYwCPj-30" value="手动推送" style="rhombus;whiteSpace=wrap;html=1;fillColor=#ffffc0;strokeColor=#000000;dashed=1;dashPattern=1 2;" parent="b1F-uJUC9WspK6oYwCPj-3" vertex="1">
          <mxGeometry x="270" y="216.34" width="80" height="40" as="geometry" />
        </mxCell>
        <mxCell id="b1F-uJUC9WspK6oYwCPj-34" value="重推流程" style="whiteSpace=wrap;html=1;align=center;fillColor=#99CCFF;" parent="b1F-uJUC9WspK6oYwCPj-3" vertex="1">
          <mxGeometry x="270" y="137.44" width="80" height="35.12" as="geometry" />
        </mxCell>
        <mxCell id="b1F-uJUC9WspK6oYwCPj-36" value="" style="endArrow=classic;html=1;rounded=0;entryX=0.5;entryY=0;entryDx=0;entryDy=0;exitX=0.5;exitY=1;exitDx=0;exitDy=0;" parent="b1F-uJUC9WspK6oYwCPj-3" source="b1F-uJUC9WspK6oYwCPj-34" target="b1F-uJUC9WspK6oYwCPj-30" edge="1">
          <mxGeometry width="50" height="50" relative="1" as="geometry">
            <mxPoint x="309.8299999999999" y="187.56" as="sourcePoint" />
            <mxPoint x="309.93000000000006" y="210" as="targetPoint" />
          </mxGeometry>
        </mxCell>
        <mxCell id="b1F-uJUC9WspK6oYwCPj-38" value="记录推送/重推日志" style="whiteSpace=wrap;html=1;align=center;fillColor=#E1D5E7;" parent="b1F-uJUC9WspK6oYwCPj-3" vertex="1">
          <mxGeometry x="130" y="216.34" width="80" height="42.44" as="geometry" />
        </mxCell>
        <mxCell id="b1F-uJUC9WspK6oYwCPj-37" value="是" style="edgeStyle=orthogonalEdgeStyle;html=1;align=left;verticalAlign=bottom;endArrow=open;endSize=8;strokeColor=#000000;rounded=0;exitX=-0.023;exitY=0.474;exitDx=0;exitDy=0;exitPerimeter=0;entryX=1.024;entryY=0.438;entryDx=0;entryDy=0;entryPerimeter=0;" parent="b1F-uJUC9WspK6oYwCPj-3" source="b1F-uJUC9WspK6oYwCPj-30" target="b1F-uJUC9WspK6oYwCPj-38" edge="1">
          <mxGeometry x="0.3618" relative="1" as="geometry">
            <mxPoint x="299" y="296.34" as="targetPoint" />
            <mxPoint x="220" y="183.78" as="sourcePoint" />
            <Array as="points" />
            <mxPoint as="offset" />
          </mxGeometry>
        </mxCell>
        <mxCell id="b1F-uJUC9WspK6oYwCPj-40" value="log日志记录" style="whiteSpace=wrap;html=1;align=center;fillColor=#D5E8D4;" parent="b1F-uJUC9WspK6oYwCPj-3" vertex="1">
          <mxGeometry x="270" y="303.66" width="80" height="42.44" as="geometry" />
        </mxCell>
        <mxCell id="b1F-uJUC9WspK6oYwCPj-41" value="否" style="edgeStyle=orthogonalEdgeStyle;html=1;align=left;verticalAlign=top;endArrow=open;endSize=8;strokeColor=#000000;rounded=0;entryX=0.5;entryY=0;entryDx=0;entryDy=0;exitX=0.5;exitY=1;exitDx=0;exitDy=0;" parent="b1F-uJUC9WspK6oYwCPj-3" source="b1F-uJUC9WspK6oYwCPj-30" target="b1F-uJUC9WspK6oYwCPj-40" edge="1">
          <mxGeometry x="-0.886" relative="1" as="geometry">
            <mxPoint x="180" y="245.00000000000003" as="targetPoint" />
            <mxPoint x="310" y="275.00000000000006" as="sourcePoint" />
            <Array as="points" />
            <mxPoint as="offset" />
          </mxGeometry>
        </mxCell>
        <mxCell id="b1F-uJUC9WspK6oYwCPj-62" value="" style="rounded=0;orthogonalLoop=1;jettySize=auto;html=1;strokeColor=#000000;entryX=0.435;entryY=0.021;entryDx=0;entryDy=0;entryPerimeter=0;exitX=0.493;exitY=0.996;exitDx=0;exitDy=0;exitPerimeter=0;" parent="b1F-uJUC9WspK6oYwCPj-3" source="b1F-uJUC9WspK6oYwCPj-46" target="b1F-uJUC9WspK6oYwCPj-53" edge="1">
          <mxGeometry relative="1" as="geometry">
            <mxPoint x="170" y="365" as="sourcePoint" />
            <Array as="points" />
          </mxGeometry>
        </mxCell>
        <mxCell id="b1F-uJUC9WspK6oYwCPj-63" value="" style="edgeStyle=none;rounded=0;orthogonalLoop=1;jettySize=auto;html=1;strokeColor=#000000;" parent="b1F-uJUC9WspK6oYwCPj-3" source="b1F-uJUC9WspK6oYwCPj-46" target="b1F-uJUC9WspK6oYwCPj-52" edge="1">
          <mxGeometry relative="1" as="geometry" />
        </mxCell>
        <mxCell id="b1F-uJUC9WspK6oYwCPj-46" value="商家号&lt;br&gt;路由" style="ellipse;shape=umlControl;whiteSpace=wrap;html=1;dashed=1;dashPattern=1 2;strokeColor=#000000;fillColor=#FFF2CC;gradientColor=none;" parent="b1F-uJUC9WspK6oYwCPj-3" vertex="1">
          <mxGeometry x="140" y="295" width="60" height="65" as="geometry" />
        </mxCell>
        <mxCell id="b1F-uJUC9WspK6oYwCPj-48" value="" style="endArrow=classic;html=1;rounded=0;entryX=0.493;entryY=0.062;entryDx=0;entryDy=0;exitX=0.399;exitY=1.064;exitDx=0;exitDy=0;exitPerimeter=0;entryPerimeter=0;" parent="b1F-uJUC9WspK6oYwCPj-3" target="b1F-uJUC9WspK6oYwCPj-46" edge="1">
          <mxGeometry width="50" height="50" relative="1" as="geometry">
            <mxPoint x="169.8" y="260" as="sourcePoint" />
            <mxPoint x="169.90000000000003" y="295" as="targetPoint" />
          </mxGeometry>
        </mxCell>
        <mxCell id="b1F-uJUC9WspK6oYwCPj-50" value="更新推送/重推日志状态" style="whiteSpace=wrap;html=1;align=center;fillColor=#E1D5E7;" parent="b1F-uJUC9WspK6oYwCPj-3" vertex="1">
          <mxGeometry x="130" y="485" width="80" height="42.44" as="geometry" />
        </mxCell>
        <mxCell id="y_xXm0VAe8yYN1PabR7z-2" value="" style="edgeStyle=none;rounded=0;orthogonalLoop=1;jettySize=auto;html=1;strokeColor=#000000;" edge="1" parent="b1F-uJUC9WspK6oYwCPj-3" source="b1F-uJUC9WspK6oYwCPj-52" target="b1F-uJUC9WspK6oYwCPj-50">
          <mxGeometry relative="1" as="geometry" />
        </mxCell>
        <mxCell id="b1F-uJUC9WspK6oYwCPj-52" value="联合利华" style="ellipse;whiteSpace=wrap;html=1;dashed=1;dashPattern=1 2;strokeColor=#000000;fillColor=#FFF2CC;gradientColor=none;" parent="b1F-uJUC9WspK6oYwCPj-3" vertex="1">
          <mxGeometry x="130" y="395" width="80" height="45" as="geometry" />
        </mxCell>
        <mxCell id="b1F-uJUC9WspK6oYwCPj-53" value="悦诗风吟" style="ellipse;whiteSpace=wrap;html=1;dashed=1;dashPattern=1 2;strokeColor=#000000;fillColor=#FFF2CC;gradientColor=none;" parent="b1F-uJUC9WspK6oYwCPj-3" vertex="1">
          <mxGeometry x="230" y="395" width="80" height="45" as="geometry" />
        </mxCell>
        <mxCell id="b1F-uJUC9WspK6oYwCPj-59" value="。。。。" style="ellipse;whiteSpace=wrap;html=1;dashed=1;dashPattern=1 2;strokeColor=#000000;fillColor=#FFF2CC;gradientColor=none;" parent="b1F-uJUC9WspK6oYwCPj-3" vertex="1">
          <mxGeometry x="330" y="395" width="80" height="45" as="geometry" />
        </mxCell>
        <mxCell id="b1F-uJUC9WspK6oYwCPj-61" value="" style="endArrow=classic;html=1;rounded=0;entryX=0.5;entryY=0;entryDx=0;entryDy=0;exitX=0.492;exitY=0.997;exitDx=0;exitDy=0;exitPerimeter=0;" parent="b1F-uJUC9WspK6oYwCPj-3" source="b1F-uJUC9WspK6oYwCPj-46" edge="1">
          <mxGeometry width="50" height="50" relative="1" as="geometry">
            <mxPoint x="170" y="365" as="sourcePoint" />
            <mxPoint x="70" y="395" as="targetPoint" />
          </mxGeometry>
        </mxCell>
        <mxCell id="b1F-uJUC9WspK6oYwCPj-64" value="" style="edgeStyle=none;rounded=0;orthogonalLoop=1;jettySize=auto;html=1;strokeColor=#000000;entryX=0.5;entryY=0;entryDx=0;entryDy=0;exitX=0.497;exitY=0.999;exitDx=0;exitDy=0;exitPerimeter=0;" parent="b1F-uJUC9WspK6oYwCPj-3" source="b1F-uJUC9WspK6oYwCPj-46" target="b1F-uJUC9WspK6oYwCPj-59" edge="1">
          <mxGeometry relative="1" as="geometry">
            <mxPoint x="180" y="370" as="sourcePoint" />
            <mxPoint x="180" y="405" as="targetPoint" />
          </mxGeometry>
        </mxCell>
        <mxCell id="y_xXm0VAe8yYN1PabR7z-1" value="" style="endArrow=classic;html=1;rounded=0;exitX=0.5;exitY=1;exitDx=0;exitDy=0;" edge="1" parent="b1F-uJUC9WspK6oYwCPj-3">
          <mxGeometry width="50" height="50" relative="1" as="geometry">
            <mxPoint x="70" y="440" as="sourcePoint" />
            <mxPoint x="170" y="485" as="targetPoint" />
          </mxGeometry>
        </mxCell>
        <mxCell id="y_xXm0VAe8yYN1PabR7z-4" value="" style="edgeStyle=none;rounded=0;orthogonalLoop=1;jettySize=auto;html=1;strokeColor=#000000;exitX=0.5;exitY=1;exitDx=0;exitDy=0;entryX=1;entryY=0.5;entryDx=0;entryDy=0;" edge="1" parent="b1F-uJUC9WspK6oYwCPj-3" source="b1F-uJUC9WspK6oYwCPj-59" target="b1F-uJUC9WspK6oYwCPj-50">
          <mxGeometry relative="1" as="geometry">
            <mxPoint x="280" y="450" as="sourcePoint" />
            <mxPoint x="180" y="485" as="targetPoint" />
          </mxGeometry>
        </mxCell>
        <mxCell id="y_xXm0VAe8yYN1PabR7z-3" value="" style="edgeStyle=none;rounded=0;orthogonalLoop=1;jettySize=auto;html=1;strokeColor=#000000;exitX=0.5;exitY=1;exitDx=0;exitDy=0;" edge="1" parent="b1F-uJUC9WspK6oYwCPj-3" source="b1F-uJUC9WspK6oYwCPj-53">
          <mxGeometry relative="1" as="geometry">
            <mxPoint x="180" y="450" as="sourcePoint" />
            <mxPoint x="170" y="485" as="targetPoint" />
          </mxGeometry>
        </mxCell>
        <mxCell id="y_xXm0VAe8yYN1PabR7z-5" value="爱茉莉" style="ellipse;whiteSpace=wrap;html=1;dashed=1;dashPattern=1 2;strokeColor=#000000;fillColor=#FFF2CC;gradientColor=none;" vertex="1" parent="b1F-uJUC9WspK6oYwCPj-3">
          <mxGeometry x="30" y="395" width="80" height="45" as="geometry" />
        </mxCell>
        <mxCell id="y_xXm0VAe8yYN1PabR7z-6" value="" style="endArrow=classic;html=1;rounded=0;entryX=0.5;entryY=0;entryDx=0;entryDy=0;exitX=0.492;exitY=0.997;exitDx=0;exitDy=0;exitPerimeter=0;" edge="1" parent="b1F-uJUC9WspK6oYwCPj-3">
          <mxGeometry width="50" height="50" relative="1" as="geometry">
            <mxPoint x="169.5200000000002" y="359.80499999999995" as="sourcePoint" />
            <mxPoint x="70.00000000000011" y="395" as="targetPoint" />
          </mxGeometry>
        </mxCell>
        <mxCell id="y_xXm0VAe8yYN1PabR7z-7" value="" style="edgeStyle=none;rounded=0;orthogonalLoop=1;jettySize=auto;html=1;strokeColor=#000000;" edge="1" parent="b1F-uJUC9WspK6oYwCPj-3">
          <mxGeometry relative="1" as="geometry">
            <mxPoint x="170" y="360" as="sourcePoint" />
            <mxPoint x="170" y="395" as="targetPoint" />
          </mxGeometry>
        </mxCell>
        <mxCell id="b1F-uJUC9WspK6oYwCPj-12" value="" style="endArrow=classic;html=1;rounded=0;entryX=0;entryY=0.5;entryDx=0;entryDy=0;" parent="1" target="b1F-uJUC9WspK6oYwCPj-13" edge="1">
          <mxGeometry width="50" height="50" relative="1" as="geometry">
            <mxPoint x="160" y="125" as="sourcePoint" />
            <mxPoint x="430" y="120" as="targetPoint" />
          </mxGeometry>
        </mxCell>
        <mxCell id="b1F-uJUC9WspK6oYwCPj-43" value="订单服务" style="text;html=1;strokeColor=none;fillColor=none;align=center;verticalAlign=middle;whiteSpace=wrap;rounded=0;dashed=1;dashPattern=1 2;" parent="1" vertex="1">
          <mxGeometry x="80" y="100" width="80" height="50" as="geometry" />
        </mxCell>
      </root>
    </mxGraphModel>
  </diagram>
</mxfile>
